<svg width="91" height="87" viewBox="0 0 91 87" fill="none" xmlns="http://www.w3.org/2000/svg">
<path fill-rule="evenodd" clip-rule="evenodd" d="M82.3726 0.526133C82.46 0.218808 82.1801 -0.0669878 81.871 0.0138795L68.6536 3.47196C68.3497 3.55147 68.2424 3.92782 68.4587 4.15563L71.7012 7.57039C71.8568 7.73423 71.8517 7.99269 71.6899 8.15036L50.3883 28.9058C50.2619 29.0289 50.0712 29.0582 49.9138 28.9785L34.2104 21.0344L33.0371 20.4409C32.894 20.3685 32.7218 20.3855 32.5957 20.4847L31.5618 21.297L8.76717 39.2071C8.58789 39.3479 8.55674 39.6075 8.69761 39.7868L11.2482 43.033C11.3891 43.2123 11.6487 43.2435 11.8279 43.1026L33.1751 26.3298C33.3013 26.2307 33.4734 26.2136 33.6166 26.286L49.5199 34.3312L50.8359 34.997C50.9934 35.0766 51.184 35.0474 51.3104 34.9243L52.3667 33.895L75.0939 11.7507C75.2587 11.5901 75.5229 11.5952 75.6814 11.7621L77.8752 14.0725C78.0954 14.3044 78.4843 14.2087 78.5717 13.9011L82.3726 0.526133Z" fill="url(#paint0_linear_149_1220)"/>
<path d="M14.3301 45.8744L22.587 39.0625V63.4203H14.3301V45.8744Z" fill="#183A73" stroke="#183A74" stroke-width="0.412844"/>
<path d="M27.541 37.6176L35.7979 32.457V63.4203H27.541V37.6176Z" fill="url(#paint1_linear_149_1220)"/>
<path d="M49.4217 39.6679L40.752 34.5215V63.4206H49.4217V39.6679Z" fill="#184078"/>
<path d="M54.377 36.3482L63.0467 28.7412V63.4201H54.377V36.3482Z" fill="url(#paint2_linear_149_1220)"/>
<path d="M68 27.6468L76.6697 17.5947V63.4204H68V27.6468Z" fill="url(#paint3_linear_149_1220)"/>
<path d="M13.4465 71.2947H15.2753L12.0459 81.5488H10.268L8.03279 73.9507L5.79037 81.5488H4.01966L0.783024 71.2947H2.66985L4.95581 79.1685L7.27806 71.2947H8.83832L11.1533 79.1685L13.4465 71.2947ZM23.4534 77.7752C23.4534 77.9977 23.4389 78.2154 23.4098 78.4283H17.2704C17.4059 78.975 17.6913 79.4128 18.1267 79.7418C18.567 80.066 19.0943 80.228 19.7088 80.228C20.1829 80.228 20.6231 80.1289 21.0295 79.9305C21.4408 79.7322 21.7601 79.483 21.9875 79.183L23.1123 80.1482C22.7204 80.6417 22.2221 81.0287 21.6174 81.3093C21.0174 81.59 20.3667 81.7303 19.6652 81.7303C18.4654 81.7303 17.4663 81.3481 16.6681 80.5836C15.8746 79.8192 15.4779 78.8686 15.4779 77.7316C15.4779 76.9963 15.6521 76.3286 16.0004 75.7287C16.3488 75.1239 16.8277 74.6498 17.4373 74.3063C18.0517 73.9628 18.7315 73.7911 19.4765 73.7911C20.6135 73.7911 21.5593 74.1709 22.314 74.9304C23.0736 75.6852 23.4534 76.6334 23.4534 77.7752ZM19.462 75.2933C18.925 75.2933 18.4557 75.4553 18.0542 75.7795C17.6574 76.1036 17.3914 76.5318 17.2559 77.064H21.6754C21.5496 76.5318 21.2835 76.1036 20.8771 75.7795C20.4756 75.4553 20.0039 75.2933 19.462 75.2933ZM31.4573 73.9725H33.1264V81.5488H31.4573V80.4603C30.7897 81.3069 29.9043 81.7303 28.8012 81.7303C28.0997 81.7303 27.4635 81.5585 26.8926 81.215C26.3217 80.8667 25.8742 80.3901 25.5501 79.7854C25.2308 79.1806 25.0711 78.5057 25.0711 77.7607C25.0711 77.0156 25.2308 76.3407 25.5501 75.736C25.8742 75.1312 26.3217 74.6571 26.8926 74.3136C27.4635 73.9652 28.0997 73.7911 28.8012 73.7911C29.9091 73.7911 30.7945 74.212 31.4573 75.0538V73.9725ZM29.1278 80.1192C29.7954 80.1192 30.3494 79.8942 30.7897 79.4443C31.2348 78.9895 31.4573 78.4283 31.4573 77.7607C31.4573 77.0882 31.2348 76.527 30.7897 76.077C30.3494 75.6223 29.7954 75.3949 29.1278 75.3949C28.4553 75.3949 27.8941 75.6223 27.4442 76.077C26.9991 76.527 26.7765 77.0882 26.7765 77.7607C26.7765 78.4283 26.9991 78.9895 27.4442 79.4443C27.8941 79.8942 28.4553 80.1192 29.1278 80.1192ZM35.7021 81.5488V70.8447H37.3712V81.5488H35.7021ZM44.5043 75.482H42.3634V79.0669C42.3634 79.4153 42.4578 79.6789 42.6465 79.8579C42.84 80.0321 43.1133 80.1192 43.4665 80.1192C43.8003 80.1192 44.1463 80.0321 44.5043 79.8579V81.4182C44.093 81.6262 43.631 81.7303 43.1182 81.7303C42.3199 81.7303 41.7176 81.5198 41.3112 81.0989C40.9048 80.678 40.7016 80.0902 40.7016 79.3354V75.482H39.4171V73.9725H40.7016V72.0058H42.3634V73.9725H44.5043V75.482ZM50.8246 73.7911C51.7244 73.7911 52.4477 74.0644 52.9944 74.6111C53.5459 75.1578 53.8217 75.8811 53.8217 76.781V81.5488H52.1599V77.3252C52.1599 76.7447 51.9881 76.2778 51.6446 75.9246C51.3011 75.5715 50.8439 75.3949 50.273 75.3949C49.6731 75.3949 49.1893 75.5739 48.8216 75.9319C48.4539 76.2899 48.2701 76.764 48.2701 77.3543V81.5488H46.601V70.8447H48.2701V74.9957C48.8894 74.1926 49.7408 73.7911 50.8246 73.7911ZM63.0013 72.9565H58.1681V75.6634H62.3917V77.3252H58.1681V81.5488H56.4046V71.2947H63.0013V72.9565ZM65.0472 81.5488V70.8447H66.7163V81.5488H65.0472ZM72.8842 81.7303C71.7279 81.7303 70.7627 81.3505 69.9886 80.5909C69.2145 79.8313 68.8275 78.8879 68.8275 77.7607C68.8275 76.6334 69.2145 75.69 69.9886 74.9304C70.7627 74.1709 71.7279 73.7911 72.8842 73.7911C73.6389 73.7911 74.3259 73.9652 74.9452 74.3136C75.5693 74.6571 76.0579 75.1336 76.4111 75.7432C76.7643 76.348 76.9408 77.0204 76.9408 77.7607C76.9408 78.5009 76.7643 79.1758 76.4111 79.7854C76.0579 80.3901 75.5693 80.8667 74.9452 81.215C74.3259 81.5585 73.6389 81.7303 72.8842 81.7303ZM71.2078 79.4443C71.6577 79.8942 72.2165 80.1192 72.8842 80.1192C73.5518 80.1192 74.1058 79.8942 74.546 79.4443C74.9911 78.9895 75.2137 78.4283 75.2137 77.7607C75.2137 77.0882 74.9911 76.527 74.546 76.077C74.1058 75.6223 73.5518 75.3949 72.8842 75.3949C72.2165 75.3949 71.6577 75.6223 71.2078 76.077C70.7579 76.5318 70.5329 77.093 70.5329 77.7607C70.5329 78.4283 70.7579 78.9895 71.2078 79.4443ZM88.5007 73.9725H90.3004L87.5791 81.5488H85.8591L84.0594 75.9609L82.2451 81.5488H80.518L77.8038 73.9725H79.6616L81.4251 79.4515L83.2248 73.9725H84.923L86.73 79.4661L88.5007 73.9725Z" fill="#151515"/>
<defs>
<linearGradient id="paint0_linear_149_1220" x1="44.9515" y1="2.04959" x2="44.8547" y2="35.318" gradientUnits="userSpaceOnUse">
<stop stop-color="#5BAE5D"/>
<stop offset="0.5" stop-color="#299A76"/>
<stop offset="0.75" stop-color="#4E8775"/>
<stop offset="1" stop-color="#206DA3"/>
</linearGradient>
<linearGradient id="paint1_linear_149_1220" x1="31.6695" y1="32.457" x2="31.6695" y2="63.4203" gradientUnits="userSpaceOnUse">
<stop stop-color="#1F8CB9"/>
<stop offset="0.9999" stop-color="#225BA4"/>
</linearGradient>
<linearGradient id="paint2_linear_149_1220" x1="58.7118" y1="28.7412" x2="58.7118" y2="63.4201" gradientUnits="userSpaceOnUse">
<stop stop-color="#1F8CB9"/>
<stop offset="0.9999" stop-color="#225BA4"/>
</linearGradient>
<linearGradient id="paint3_linear_149_1220" x1="72.3349" y1="17.5947" x2="72.3349" y2="63.4204" gradientUnits="userSpaceOnUse">
<stop stop-color="#188891"/>
<stop offset="0.5" stop-color="#1B668F"/>
<stop offset="1" stop-color="#183571"/>
</linearGradient>
</defs>
</svg>
