<svg width="25" height="25" viewBox="0 0 25 25" fill="none" xmlns="http://www.w3.org/2000/svg">
<path fill-rule="evenodd" clip-rule="evenodd" d="M20.66 12.7416C20.66 12.1388 20.6059 11.5593 20.5055 11.0029H12.5V14.2909H17.0746C16.8775 15.3534 16.2786 16.2536 15.3784 16.8563V18.9891H18.1255C19.7327 17.5093 20.66 15.3302 20.66 12.7416Z" fill="#4285F4"/>
<path fill-rule="evenodd" clip-rule="evenodd" d="M12.5002 21.0491C14.7952 21.0491 16.7193 20.2879 18.1257 18.9898L15.3786 16.857C14.6175 17.367 13.6439 17.6684 12.5002 17.6684C10.2864 17.6684 8.41248 16.1732 7.74407 14.1641H4.9043V16.3663C6.30294 19.1443 9.17749 21.0491 12.5002 21.0491Z" fill="#34A853"/>
<path fill-rule="evenodd" clip-rule="evenodd" d="M7.74387 14.1637C7.57387 13.6537 7.47728 13.109 7.47728 12.5487C7.47728 11.9885 7.57387 11.4437 7.74387 10.9337V8.73145H4.90409C4.32841 9.87895 4 11.1771 4 12.5487C4 13.9203 4.32841 15.2185 4.90409 16.366L7.74387 14.1637Z" fill="#FBBC05"/>
<path fill-rule="evenodd" clip-rule="evenodd" d="M12.5002 7.42952C13.7482 7.42952 14.8686 7.85838 15.7495 8.70065L18.1875 6.2627C16.7155 4.8911 14.7914 4.04883 12.5002 4.04883C9.17748 4.04883 6.30294 5.9536 4.9043 8.73156L7.74407 10.9338C8.41248 8.92475 10.2864 7.42952 12.5002 7.42952Z" fill="#EA4335"/>
</svg>
